<svg xmlns="http://www.w3.org/2000/svg" version="1.1" xmlns:xlink="http://www.w3.org/1999/xlink" xmlns:svgjs="http://svgjs.dev/svgjs" width="1000" height="1000" viewBox="0 0 1000 1000"><rect width="1000" height="1000" fill="#000000"></rect><g transform="matrix(0.7,0,0,0.7,149.5757575757575,349.74616611683115)"><svg viewBox="0 0 396 170" data-background-color="#000000" preserveAspectRatio="xMidYMid meet" height="429" width="1000" xmlns="http://www.w3.org/2000/svg" xmlns:xlink="http://www.w3.org/1999/xlink"><g id="tight-bounds" transform="matrix(1,0,0,1,0.24000000000003752,0.05878042004232498)"><svg viewBox="0 0 395.5199999999999 169.88243915991535" height="169.88243915991535" width="395.5199999999999"><g><svg viewBox="0 0 687.7158819238068 295.3854456670425" height="169.88243915991535" width="395.5199999999999"><g><svg viewBox="0 0 395.52 295.3854456670425" height="295.3854456670425" width="395.52"><g><svg viewBox="0 0 395.52 295.3854456670425" height="295.3854456670425" width="395.52"><g><svg viewBox="0 0 395.52 202.3268859342197" height="202.3268859342197" width="395.52"><g transform="matrix(1,0,0,1,0,0)"><svg width="395.52" viewBox="1.2 -35.65 71.45 36.55" height="202.3268859342197" data-palette-color="#77d4fc"><path d="M35.65-34.75L38.25 0 29.15 0 28.7-12.95 28.65-15.1Q28.55-18.1 28.55-19.65L28.55-19.65Q28.55-23.4 28.85-27.15L28.85-27.15 24.1-3.6 15.35-3.6 10.3-27.15Q10.75-21.3 10.75-16.85L10.75-16.85Q10.75-14.3 10.7-12.95L10.7-12.95 10.3 0 1.2 0 3.75-34.75 15.25-34.75 19.9-11.7 24.1-34.75 35.65-34.75ZM56.7-35.65Q64.25-35.65 68.45-30.85 72.65-26.05 72.65-17.4L72.65-17.4Q72.65-11.75 70.77-7.63 68.9-3.5 65.3-1.3 61.7 0.9 56.7 0.9L56.7 0.9Q49.15 0.9 44.97-3.9 40.8-8.7 40.8-17.4L40.8-17.4Q40.8-23.05 42.67-27.15 44.55-31.25 48.12-33.45 51.7-35.65 56.7-35.65L56.7-35.65ZM56.7-29Q53.45-29 51.92-26.3 50.4-23.6 50.4-17.4L50.4-17.4Q50.4-11.2 51.95-8.47 53.5-5.75 56.7-5.75L56.7-5.75Q60-5.75 61.5-8.45 63-11.15 63-17.4L63-17.4Q63-23.6 61.5-26.3 60-29 56.7-29L56.7-29Z" opacity="1" transform="matrix(1,0,0,1,0,0)" fill="#77d4fc" class="undefined-text-0" data-fill-palette-color="primary" id="text-0"></path></svg></g></svg></g><g transform="matrix(1,0,0,1,0,250.09140785802654)"><svg viewBox="0 0 395.52 45.294037809016" height="45.294037809016" width="395.52"><g transform="matrix(1,0,0,1,0,0)"><svg width="395.52" viewBox="3.9 -37.95 412.57000000000005 47.25" height="45.294037809016" data-palette-color="#4b91f1"><path d="M18.35-26.55L17.3-19 24.1-22.2 26.15-16 18.7-14.6 24-9.15 18.55-5.2 14.95-11.9 11.5-5.15 6.05-9.1 11.25-14.65 3.9-16 5.85-22.2 12.7-19.05 11.6-26.55 18.35-26.55ZM57.2-34.65L59.15 0 51.95 0 51.55-14.85Q51.5-15.95 51.5-17.85L51.5-17.85Q51.5-20.35 51.65-22.73 51.8-25.1 52-27.7L52-27.7 48.1-5.9 41.9-5.9 37.65-27.7Q38.2-21.95 38.2-17.35L38.2-17.35 38.15-14.7 37.9 0 30.85 0 32.8-34.65 41.25-34.65 45.1-12.25 48.75-34.65 57.2-34.65ZM75-27.45Q81.05-27.45 84.47-23.63 87.9-19.8 87.9-13.35L87.9-13.35Q87.9-6.65 84.5-2.9 81.09 0.85 75 0.85L75 0.85Q68.9 0.85 65.5-2.88 62.1-6.6 62.1-13.3L62.1-13.3Q62.1-17.55 63.62-20.73 65.15-23.9 68.07-25.68 71-27.45 75-27.45L75-27.45ZM75-21.6Q72.55-21.6 71.4-19.63 70.25-17.65 70.25-13.3L70.25-13.3Q70.25-8.9 71.4-6.93 72.55-4.95 75-4.95L75-4.95Q77.45-4.95 78.59-6.95 79.75-8.95 79.75-13.35L79.75-13.35Q79.75-17.65 78.59-19.63 77.45-21.6 75-21.6L75-21.6ZM101.39-37.9L101.39-23.9Q104.74-27.45 109.19-27.45L109.19-27.45Q112.69-27.45 114.59-25.38 116.49-23.3 116.49-19.5L116.49-19.5 116.49 0 108.59 0 108.59-17.3Q108.59-19.7 108.04-20.65 107.49-21.6 106.04-21.6L106.04-21.6Q104.84-21.6 103.72-20.78 102.59-19.95 101.39-18.35L101.39-18.35 101.39 0 93.49 0 93.49-37.1 101.39-37.9ZM145.84-7.65Q145.84-6.2 146.24-5.5 146.64-4.8 147.59-4.45L147.59-4.45 145.94 0.75Q143.54 0.5 141.94-0.33 140.34-1.15 139.44-2.75L139.44-2.75Q137.94-1 135.64-0.08 133.34 0.85 130.74 0.85L130.74 0.85Q126.64 0.85 124.19-1.48 121.74-3.8 121.74-7.5L121.74-7.5Q121.74-11.8 125.14-14.18 128.54-16.55 134.69-16.55L134.69-16.55 138.24-16.55 138.24-17.5Q138.24-21.6 132.99-21.6L132.99-21.6Q131.64-21.6 129.62-21.23 127.59-20.85 125.69-20.2L125.69-20.2 123.89-25.45Q126.44-26.4 129.22-26.93 131.99-27.45 134.24-27.45L134.24-27.45Q145.84-27.45 145.84-18.05L145.84-18.05 145.84-7.65ZM133.44-4.8Q134.79-4.8 136.17-5.58 137.54-6.35 138.24-7.7L138.24-7.7 138.24-12.05 136.29-12.05Q129.89-12.05 129.89-8.05L129.89-8.05Q129.89-6.5 130.81-5.65 131.74-4.8 133.44-4.8L133.44-4.8ZM173.14-27.45Q175.99-27.45 177.31-25.58 178.64-23.7 178.64-19.65L178.64-19.65 178.64 0 171.89 0 171.89-18.75Q171.89-20.2 171.61-20.75 171.34-21.3 170.59-21.3L170.59-21.3Q169.19-21.3 167.84-19.55L167.84-19.55 167.84 0 162.24 0 162.24-18.75Q162.24-20.2 161.96-20.75 161.69-21.3 160.94-21.3L160.94-21.3Q159.54-21.3 158.19-19.55L158.19-19.55 158.19 0 151.34 0 151.34-26.55 157.09-26.55 157.64-24Q158.94-25.8 160.21-26.63 161.49-27.45 163.19-27.45L163.19-27.45Q164.74-27.45 165.79-26.68 166.84-25.9 167.29-24.3L167.29-24.3Q169.99-27.45 173.14-27.45L173.14-27.45ZM190.34-10.95Q191.09-4.9 196.74-4.9L196.74-4.9Q200.14-4.9 203.54-7.1L203.54-7.1 206.69-2.8Q204.74-1.1 202.04-0.13 199.34 0.85 196.09 0.85L196.09 0.85Q191.64 0.85 188.54-0.93 185.44-2.7 183.86-5.88 182.29-9.05 182.29-13.25L182.29-13.25Q182.29-17.25 183.81-20.48 185.34-23.7 188.26-25.58 191.19-27.45 195.24-27.45L195.24-27.45Q199.04-27.45 201.84-25.83 204.64-24.2 206.16-21.13 207.69-18.05 207.69-13.8L207.69-13.8Q207.69-12.15 207.54-10.95L207.54-10.95 190.34-10.95ZM195.24-22.15Q193.09-22.15 191.79-20.58 190.49-19 190.24-15.75L190.24-15.75 199.99-15.75Q199.89-22.15 195.24-22.15L195.24-22.15ZM228.58-37.95L236.48-37.1 236.48 0 229.48 0 229.08-2.9Q227.88-1.2 226.03-0.18 224.18 0.85 221.73 0.85L221.73 0.85Q216.93 0.85 214.46-2.95 211.98-6.75 211.98-13.35L211.98-13.35Q211.98-17.45 213.28-20.65 214.58-23.85 216.98-25.65 219.38-27.45 222.58-27.45L222.58-27.45Q226.18-27.45 228.58-24.95L228.58-24.95 228.58-37.95ZM224.68-21.65Q222.53-21.65 221.33-19.63 220.13-17.6 220.13-13.3L220.13-13.3Q220.13-8.7 221.21-6.83 222.28-4.95 224.23-4.95L224.23-4.95Q226.73-4.95 228.58-8L228.58-8 228.58-19.45Q227.73-20.55 226.81-21.1 225.88-21.65 224.68-21.65L224.68-21.65ZM242.48 9.3L242.48 3.1 267.48 3.1 267.48 9.3 242.48 9.3ZM298.38-10.15Q298.38-6.9 296.68-4.4 294.98-1.9 291.8-0.53 288.63 0.85 284.28 0.85L284.28 0.85Q275.68 0.85 270.58-4.15L270.58-4.15 274.73-8.75Q278.68-5.25 284.08-5.25L284.08-5.25Q286.68-5.25 288.25-6.38 289.83-7.5 289.83-9.5L289.83-9.5Q289.83-11.4 288.5-12.48 287.18-13.55 283.58-14.65L283.58-14.65Q277.48-16.5 274.93-19 272.38-21.5 272.38-25.45L272.38-25.45Q272.38-28.55 274.1-30.85 275.83-33.15 278.8-34.35 281.78-35.55 285.43-35.55L285.43-35.55Q293.08-35.55 297.83-31.05L297.83-31.05 293.98-26.6Q292.23-28.05 290.2-28.78 288.18-29.5 286.03-29.5L286.03-29.5Q283.63-29.5 282.25-28.63 280.88-27.75 280.88-26.1L280.88-26.1Q280.88-25 281.5-24.25 282.13-23.5 283.58-22.85 285.03-22.2 287.93-21.3L287.93-21.3Q293.23-19.7 295.8-17.18 298.38-14.65 298.38-10.15L298.38-10.15ZM325.83-7.65Q325.83-6.2 326.23-5.5 326.63-4.8 327.58-4.45L327.58-4.45 325.93 0.75Q323.53 0.5 321.93-0.33 320.33-1.15 319.43-2.75L319.43-2.75Q317.93-1 315.63-0.08 313.33 0.85 310.73 0.85L310.73 0.85Q306.63 0.85 304.18-1.48 301.73-3.8 301.73-7.5L301.73-7.5Q301.73-11.8 305.13-14.18 308.53-16.55 314.68-16.55L314.68-16.55 318.23-16.55 318.23-17.5Q318.23-21.6 312.98-21.6L312.98-21.6Q311.63-21.6 309.6-21.23 307.58-20.85 305.68-20.2L305.68-20.2 303.88-25.45Q306.43-26.4 309.2-26.93 311.98-27.45 314.23-27.45L314.23-27.45Q325.83-27.45 325.83-18.05L325.83-18.05 325.83-7.65ZM313.43-4.8Q314.78-4.8 316.15-5.58 317.53-6.35 318.23-7.7L318.23-7.7 318.23-12.05 316.28-12.05Q309.88-12.05 309.88-8.05L309.88-8.05Q309.88-6.5 310.8-5.65 311.73-4.8 313.43-4.8L313.43-4.8ZM347.32-37.1L347.32-8.35Q347.32-5.4 350.72-5.4L350.72-5.4Q352.57-5.4 354.52-6.2L354.52-6.2 356.37-0.9Q353.17 0.85 348.72 0.85L348.72 0.85Q344.07 0.85 341.75-1.83 339.42-4.5 339.42-9.35L339.42-9.35 339.42-31.7 331.62-31.7 331.62-37.1 347.32-37.1ZM370.32-10.95Q371.07-4.9 376.72-4.9L376.72-4.9Q380.12-4.9 383.52-7.1L383.52-7.1 386.67-2.8Q384.72-1.1 382.02-0.13 379.32 0.85 376.07 0.85L376.07 0.85Q371.62 0.85 368.52-0.93 365.42-2.7 363.85-5.88 362.27-9.05 362.27-13.25L362.27-13.25Q362.27-17.25 363.8-20.48 365.32-23.7 368.25-25.58 371.17-27.45 375.22-27.45L375.22-27.45Q379.02-27.45 381.82-25.83 384.62-24.2 386.15-21.13 387.67-18.05 387.67-13.8L387.67-13.8Q387.67-12.15 387.52-10.95L387.52-10.95 370.32-10.95ZM375.22-22.15Q373.07-22.15 371.77-20.58 370.47-19 370.22-15.75L370.22-15.75 379.97-15.75Q379.87-22.15 375.22-22.15L375.22-22.15ZM401.37-37.9L401.37-23.9Q404.72-27.45 409.17-27.45L409.17-27.45Q412.67-27.45 414.57-25.38 416.47-23.3 416.47-19.5L416.47-19.5 416.47 0 408.57 0 408.57-17.3Q408.57-19.7 408.02-20.65 407.47-21.6 406.02-21.6L406.02-21.6Q404.82-21.6 403.69-20.78 402.57-19.95 401.37-18.35L401.37-18.35 401.37 0 393.47 0 393.47-37.1 401.37-37.9Z" opacity="1" transform="matrix(1,0,0,1,0,0)" fill="#4b91f1" class="undefined-text-1" data-fill-palette-color="secondary" id="text-1"></path></svg></g></svg></g></svg></g></svg></g><g transform="matrix(1,0,0,1,443.28452192380684,25.477042833521267)"><svg viewBox="0 0 244.43135999999998 244.43135999999998" height="244.43135999999998" width="244.43135999999998"><g><svg xmlns="http://www.w3.org/2000/svg" xmlns:xlink="http://www.w3.org/1999/xlink" version="1.1" x="0" y="0" viewBox="0 0 64 64" enable-background="new 0 0 64 64" xml:space="preserve" height="244.43135999999998" width="244.43135999999998" class="icon-icon-0" data-fill-palette-color="accent" id="icon-0"><g fill="#4b91f1" data-fill-palette-color="accent"><path d="M58 0H6C2.7 0 0 2.7 0 6v52c0 3.3 2.7 6 6 6h52c3.299 0 6-2.7 6-6V6C64 2.7 61.299 0 58 0zM50.805 7.285h5.986v4.912h-5.986V7.285zM7.209 7.285h23.947v4.912H7.209V7.285zM57.328 56.111H6.671V18.645h50.657V56.111z" fill="#4b91f1" data-fill-palette-color="accent"></path><polygon points="23.662,41.776 14.259,36.063 23.662,30.554 23.662,24.695 10.18,33.638 10.18,38.611 23.662,47.593  " fill="#4b91f1" data-fill-palette-color="accent"></polygon><polygon points="53.82,33.638 40.338,24.695 40.338,30.554 49.74,36.063 40.338,41.776 40.338,47.593 53.82,38.611  " fill="#4b91f1" data-fill-palette-color="accent"></polygon><polygon points="37.379,21.938 33.424,21.938 26.621,50.351 30.501,50.351  " fill="#4b91f1" data-fill-palette-color="accent"></polygon></g></svg></g></svg></g></svg></g><defs></defs></svg><rect width="395.5199999999999" height="169.88243915991535" fill="none" stroke="none" visibility="hidden"></rect></g></svg></g></svg>