<svg xmlns="http://www.w3.org/2000/svg" version="1.1" xmlns:xlink="http://www.w3.org/1999/xlink" xmlns:svgjs="http://svgjs.dev/svgjs" width="1000" height="1000" viewBox="0 0 1000 1000"><rect width="1000" height="1000" fill="#000000"></rect><g transform="matrix(0.7,0,0,0.7,149.5757575757575,425.84892240846756)"><svg viewBox="0 0 396 84" data-background-color="#000000" preserveAspectRatio="xMidYMid meet" height="212" width="1000" xmlns="http://www.w3.org/2000/svg" xmlns:xlink="http://www.w3.org/1999/xlink"><g id="tight-bounds" transform="matrix(1,0,0,1,0.24000000000003752,-0.027691929321235875)"><svg viewBox="0 0 395.5199999999999 84.05538385864244" height="84.05538385864244" width="395.5199999999999"><g><svg viewBox="0 0 526.5326642458601 111.89802085178873" height="84.05538385864244" width="395.5199999999999"><g transform="matrix(1,0,0,1,0,15.464921839863713)"><svg viewBox="0 0 395.5199999999999 80.9681771720613" height="80.9681771720613" width="395.5199999999999"><g><svg viewBox="0 0 395.5199999999999 80.9681771720613" height="80.9681771720613" width="395.5199999999999"><g><svg viewBox="0 0 395.5199999999999 80.9681771720613" height="80.9681771720613" width="395.5199999999999"><g transform="matrix(1,0,0,1,0,0)"><svg width="395.5199999999999" viewBox="4.35 -35.65 176.09 36.05" height="80.9681771720613" data-palette-color="#77d4fc"><path d="M21.1-9.7L34.3-35.25 37.65-35.25 37.65 0 33.9 0 33.95-27.3 22.5-5.6 19.6-5.6 8.1-27.1 8.15 0 4.35 0 4.35-35.25 7.75-35.25 21.1-9.7ZM61.15 0.4Q56.25 0.4 52.62-1.8 49-4 47.05-8.05 45.1-12.1 45.1-17.6L45.1-17.6Q45.1-23.15 47.02-27.23 48.95-31.3 52.57-33.48 56.2-35.65 61.15-35.65L61.15-35.65Q66.1-35.65 69.72-33.48 73.35-31.3 75.27-27.23 77.2-23.15 77.2-17.65L77.2-17.65Q77.2-12.15 75.25-8.08 73.3-4 69.67-1.8 66.05 0.4 61.15 0.4L61.15 0.4ZM61.15-3.1Q66.75-3.1 69.87-6.88 73-10.65 73-17.65L73-17.65Q73-24.65 69.9-28.4 66.8-32.15 61.15-32.15L61.15-32.15Q55.55-32.15 52.42-28.38 49.3-24.6 49.3-17.65L49.3-17.65Q49.3-10.7 52.42-6.9 55.55-3.1 61.15-3.1L61.15-3.1ZM84.59 0L84.59-35.25 96.45-35.25Q104.9-35.25 109.52-30.68 114.15-26.1 114.15-17.65L114.15-17.65Q114.15-9.2 109.52-4.6 104.9 0 96.45 0L96.45 0 84.59 0ZM88.7-3.5L96.2-3.5Q109.9-3.5 109.9-17.65L109.9-17.65Q109.9-31.75 96.2-31.75L96.2-31.75 88.7-31.75 88.7-3.5ZM143.84 0L121.54 0 121.54-35.25 143.84-35.25 143.84-31.85 125.59-31.85 125.59-19.6 142.84-19.6 142.84-16.2 125.59-16.2 125.59-3.4 143.84-3.4 143.84 0ZM163.29-5.15L176.24-35.25 180.44-35.25 165.04 0 161.49 0 146.09-35.25 150.39-35.25 163.29-5.15Z" opacity="1" transform="matrix(1,0,0,1,0,0)" fill="#77d4fc" class="undefined-text-0" data-fill-palette-color="primary" id="text-0"></path></svg></g></svg></g></svg></g></svg></g><g transform="matrix(1,0,0,1,414.6346433940715,0)"><svg viewBox="0 0 111.89802085178873 111.89802085178873" height="111.89802085178873" width="111.89802085178873"><g data-palette-color="#4b91f1"><rect width="30.585459032822254" height="111.89802085178873" fill="#4b91f1" stroke="transparent" data-fill-palette-color="accent" x="0" fill-opacity="1"></rect><rect width="30.585459032822254" height="111.89802085178873" fill="#4b91f1" stroke="transparent" data-fill-palette-color="accent" x="37.299340283929574" fill-opacity="0.75"></rect><rect width="30.585459032822254" height="111.89802085178873" fill="#4b91f1" stroke="transparent" data-fill-palette-color="accent" x="74.59868056785915" fill-opacity="0.5"></rect></g></svg></g></svg></g><defs></defs></svg><rect width="395.5199999999999" height="84.05538385864244" fill="none" stroke="none" visibility="hidden"></rect></g></svg></g></svg>